<svg xmlns="http://www.w3.org/2000/svg" viewBox="0 0 512 512" role="img" aria-labelledby="title desc">
<title id="title">EMYRGEN MAP logo mark</title>
<desc id="desc">A polished circular surface with cyan magnetic field arcs.</desc>
<defs>
  <radialGradient id="bg" cx="50%" cy="38%" r="78%">
    <stop offset="0" stop-color="#0d2748"/>
    <stop offset="0.56" stop-color="#061326"/>
    <stop offset="1" stop-color="#020611"/>
  </radialGradient>
  <radialGradient id="disk" cx="48%" cy="42%" r="60%">
    <stop offset="0" stop-color="#f4fbff"/>
    <stop offset="0.18" stop-color="#a9d9ff"/>
    <stop offset="0.55" stop-color="#3d7fbc"/>
    <stop offset="0.82" stop-color="#1f4f88"/>
    <stop offset="1" stop-color="#0d2c56"/>
  </radialGradient>
  <linearGradient id="rim" x1="20%" y1="0" x2="80%" y2="100%">
    <stop offset="0" stop-color="#d8f4ff"/>
    <stop offset="0.45" stop-color="#5ecbff"/>
    <stop offset="1" stop-color="#063a75"/>
  </linearGradient>
  <filter id="glow" x="-50%" y="-50%" width="200%" height="200%">
    <feGaussianBlur stdDeviation="6" result="blur"/>
    <feMerge><feMergeNode in="blur"/><feMergeNode in="SourceGraphic"/></feMerge>
  </filter>
</defs>
<rect x="28" y="28" width="456" height="456" rx="108" fill="url(#bg)" stroke="#142946" stroke-width="6"/>
<path d="M143 318 C38 214 74 105 170 126 C230 139 225 206 261 238" fill="none" stroke="#48dfff" stroke-width="19" stroke-linecap="round" filter="url(#glow)" opacity="0.98"/>
<path d="M369 318 C474 214 438 105 342 126 C282 139 287 206 251 238" fill="none" stroke="#48dfff" stroke-width="19" stroke-linecap="round" filter="url(#glow)" opacity="0.98"/>
<ellipse cx="256" cy="266" rx="148" ry="80" fill="url(#rim)" opacity="0.95"/>
<ellipse cx="256" cy="246" rx="148" ry="80" fill="url(#disk)" stroke="#bdeeff" stroke-width="3"/>
<g opacity="0.20" stroke="#e6f8ff" stroke-width="1.2" fill="none">
  <ellipse cx="256" cy="246" rx="126" ry="68"/>
  <ellipse cx="256" cy="246" rx="103" ry="55"/>
  <ellipse cx="256" cy="246" rx="79" ry="42"/>
  <ellipse cx="256" cy="246" rx="53" ry="29"/>
  <path d="M108 246H404"/><path d="M256 166V326"/><path d="M137 201C199 235 307 260 375 294"/><path d="M137 294C199 260 307 235 375 201"/>
</g>
<circle cx="256" cy="246" r="18" fill="#eefdff" opacity="0.55"/>
</svg>